{"accessors":{"accessor_38":{"bufferView":"bufferView_1","byteOffset":0,"byteStride":0,"componentType":5123,"count":1140,"max":[379],"min":[0],"type":"SCALAR"},"accessor_41":{"bufferView":"bufferView_1","byteOffset":2280,"byteStride":0,"componentType":5123,"count":360,"max":[943],"min":[0],"type":"SCALAR"},"accessor_43":{"bufferView":"bufferView_0","byteOffset":0,"byteStride":0,"componentType":5123,"count":1124,"max":[65535,65535,65535],"min":[0,0,0],"type":"VEC3","extensions":{"WEB3D_quantized_attributes":{"decodedMin":[-0.014061899855732918,-0.0007426330121234059,-0.013472001999616623],"decodedMax":[0.013919200748205185,0.02579909935593605,0.007329720538109541],"decodeMatrix":[4.26964226809157e-7,0,0,0,0,4.0500087538047543e-7,0,0,0,0,3.17413939692167e-7,0,-0.014061899855732918,-0.0007426330121234059,-0.013472001999616623,1]}}},"accessor_45":{"bufferView":"bufferView_0","byteOffset":6744,"byteStride":0,"componentType":5121,"count":1124,"max":[255,252],"min":[0,3],"type":"VEC2"}},"animations":{},"asset":{"generator":"collada2gltf@ec3ff192cc7dd54ad5f27c08bf14e37805754a10","premultipliedAlpha":true,"profile":{"api":"WebGL","version":"1.0.2"},"version":"1.0.1"},"bufferViews":{"bufferView_0":{"buffer":"input","byteLength":8992,"byteOffset":0,"target":34962},"bufferView_1":{"buffer":"input","byteLength":3000,"byteOffset":8992,"target":34963}},"buffers":{"input":{"type":"arraybuffer","byteLength":11992,"uri":"data:application/octet-stream;base64,"}},"cameras":{"Camera-camera003":{"name":"Camera","perspective":{"aspectRatio":1.4670469939939874,"yfov":0.47109052667623796,"zfar":10.000000474974513,"znear":0.000010000000251457085},"type":"perspective"}},"materials":{"Effect-Bark":{"name":"Bark","technique":"technique0","values":{"diffuse":[0.20759500563144684,0.1385129988193512,0.055181000381708145,1],"shininess":256}},"Effect-Tree":{"name":"Tree","technique":"technique0","values":{"diffuse":[0.25686100125312805,0.4405060112476349,0.11076899617910385,1],"shininess":256}}},"meshes":{"Geometry-mesh022":{"name":"Tree_lp_11","primitives":[{"attributes":{"NORMAL":"accessor_45","POSITION":"accessor_43"},"indices":"accessor_38","material":"Effect-Bark","mode":4},{"attributes":{"NORMAL":"accessor_45","POSITION":"accessor_43"},"indices":"accessor_41","material":"Effect-Tree","mode":4}]}},"nodes":{"Camera-camera003Node":{"camera":"Camera-camera003","children":[],"matrix":[1,0,0,0,0,0.9961947202682495,-0.08715574443340302,0,0,0.08715574443340302,0.9961947202682495,0,0,0.000750000006519258,0.004000000189989805,1],"name":"Camera"},"Light-sunLight013Node":{"children":[],"matrix":[0.7071067690849304,0,0.7071067690849304,0,0.3535533845424652,0.8660253882408142,-0.3535533845424652,0,-0.6123724579811096,0.5,0.6123724579811096,0,-0.0020000000949949026,0.0020000000949949026,0.0020000000949949026,1],"name":"Directional_Light"},"rootNode":{"children":["Camera-camera003Node","Light-sunLight013Node"],"meshes":["Geometry-mesh022"],"matrix":[1,0,0,0,0,1,0,0,0,0,1,0,0,0,0,1]}},"programs":{"program_0":{"attributes":["a_normal","a_position"],"fragmentShader":"input0FS","vertexShader":"input0VS"}},"scene":"defaultScene","scenes":{"defaultScene":{"nodes":["rootNode"]}},"shaders":{"input0FS":{"type":35632,"uri":"data:text/plain;base64,"},"input0VS":{"type":35633,"uri":"data:text/plain;base64,"}},"skins":{},"techniques":{"technique0":{"attributes":{"a_normal":"normal","a_position":"position"},"parameters":{"diffuse":{"semantic":"_3DTILESDIFFUSE","type":35666},"light0Color":{"type":35665,"value":[0,0,0]},"light1Color":{"type":35665,"value":[1,1,1]},"light1Transform":{"node":"Light-sunLight013Node","semantic":"MODELVIEW","type":35676},"modelViewMatrix":{"semantic":"MODELVIEW","type":35676},"normal":{"semantic":"NORMAL","type":35667},"normalMatrix":{"semantic":"MODELVIEWINVERSETRANSPOSE","type":35675},"position":{"semantic":"POSITION","type":35665},"projectionMatrix":{"semantic":"PROJECTION","type":35676},"shininess":{"type":5126}},"program":"program_0","states":{"enable":[2929,2884]},"uniforms":{"u_diffuse":"diffuse","u_light0Color":"light0Color","u_light1Color":"light1Color","u_light1Transform":"light1Transform","u_modelViewMatrix":"modelViewMatrix","u_normalMatrix":"normalMatrix","u_projectionMatrix":"projectionMatrix","u_shininess":"shininess"}}},"images":{},"samplers":{},"textures":{},"extensionsUsed":["WEB3D_quantized_attributes"]}
